<?xml version="1.0" standalone="no"?>
<!DOCTYPE svg PUBLIC "-//W3C//DTD SVG 20010904//EN"
 "http://www.w3.org/TR/2001/REC-SVG-20010904/DTD/svg10.dtd">
<svg version="1.0" xmlns="http://www.w3.org/2000/svg"
 width="1280.000000pt" height="960.000000pt" viewBox="0 0 1280.000000 960.000000"
 preserveAspectRatio="xMidYMid meet">
<metadata>
Created by potrace 1.15, written by Peter Selinger 2001-2017
</metadata>
<g transform="translate(0.000000,960.000000) scale(0.100000,-0.100000)"
fill="#C0C0C0" stroke="none">
<path d="M6180 9072 c-46 -47 -55 -96 -55 -307 0 -212 9 -261 56 -307 28 -29
29 -32 29 -133 0 -101 -1 -104 -29 -133 -47 -46 -56 -95 -56 -302 0 -207 10
-264 57 -310 27 -28 28 -32 28 -130 0 -99 -1 -103 -30 -136 -47 -54 -55 -99
-55 -304 0 -207 9 -256 56 -302 28 -29 29 -32 29 -135 0 -99 -1 -106 -24 -124
-48 -38 -61 -105 -61 -309 0 -204 13 -271 61 -309 23 -18 24 -25 24 -126 0
-101 -1 -108 -24 -126 -47 -37 -61 -106 -61 -299 0 -201 12 -265 56 -310 28
-27 29 -32 29 -125 0 -91 -2 -98 -24 -116 -48 -37 -61 -105 -61 -304 1 -200 9
-246 55 -299 29 -33 30 -36 30 -140 0 -87 -3 -108 -15 -113 -51 -19 -80 -172
-72 -368 7 -143 23 -209 63 -245 23 -22 24 -30 24 -132 0 -89 -3 -110 -15
-115 -49 -18 -81 -184 -72 -369 8 -139 22 -196 58 -235 28 -30 29 -35 29 -133
0 -97 -1 -104 -25 -126 -45 -42 -59 -116 -59 -300 0 -186 15 -264 59 -298 24
-19 25 -25 25 -127 0 -102 -1 -108 -25 -127 -44 -34 -59 -111 -59 -298 0 -187
15 -264 59 -298 l25 -20 0 -188 c0 -200 7 -236 46 -242 43 -6 49 18 52 232 4
180 6 202 22 213 10 7 27 34 37 60 15 41 18 78 18 248 0 185 -2 204 -22 248
-12 26 -29 50 -37 53 -23 9 -23 229 0 238 8 3 25 27 37 53 20 45 22 63 22 253
0 190 -2 208 -22 253 -12 26 -29 50 -37 53 -13 5 -16 26 -16 117 0 106 1 112
26 138 39 41 54 121 54 294 0 173 -15 253 -54 294 -25 26 -26 32 -26 138 0 91
3 112 16 117 8 3 25 27 37 53 19 42 22 69 25 224 4 200 -9 283 -54 330 -23 24
-25 35 -28 133 -3 94 -1 108 14 116 10 5 28 31 41 57 21 43 24 66 27 213 6
210 -7 288 -54 340 -34 37 -34 39 -34 131 0 85 2 96 21 107 11 7 30 34 42 60
19 41 22 69 25 223 5 206 -9 283 -58 334 -29 30 -30 34 -30 131 0 94 2 102 25
124 50 47 60 97 60 310 0 213 -10 263 -60 310 -23 22 -25 30 -25 125 0 95 2
103 25 125 50 47 60 97 60 310 0 217 -8 262 -55 307 -30 28 -30 29 -30 135 0
99 2 108 21 119 11 6 31 32 42 57 20 43 22 63 22 252 0 224 -9 272 -60 320
-23 22 -25 30 -25 125 0 95 2 103 25 125 51 48 60 97 60 315 0 220 -11 274
-62 315 -40 31 -107 27 -143 -8z m96 -80 c57 -37 81 -254 42 -377 l-12 -40 -4
30 c-5 39 -19 55 -48 55 -26 0 -34 -10 -44 -54 l-7 -31 -13 45 c-17 56 -18
231 -2 286 20 70 58 106 88 86z m-52 -990 c10 -16 51 -15 64 1 6 6 12 26 14
42 l4 30 12 -40 c21 -64 26 -176 12 -249 -12 -67 -30 -98 -30 -53 0 58 -68 64
-86 7 l-12 -35 -13 45 c-17 59 -17 223 1 280 l13 45 7 -31 c4 -17 10 -36 14
-42z m3 -874 c9 -10 22 -18 29 -18 21 0 44 30 44 58 0 40 16 14 29 -46 14 -67
14 -142 0 -218 -12 -64 -29 -95 -29 -52 0 29 -23 58 -45 58 -22 0 -45 -29 -46
-58 0 -24 -2 -23 -16 13 -20 52 -22 223 -3 285 12 38 14 41 18 20 2 -14 11
-33 19 -42z m5 -879 c32 -21 68 5 68 49 0 53 20 5 32 -76 9 -64 9 -100 0 -164
-12 -81 -32 -129 -32 -76 0 27 -23 58 -42 58 -21 0 -48 -33 -49 -59 0 -22 -3
-20 -16 14 -20 53 -22 214 -3 280 l14 50 7 -34 c4 -18 13 -37 21 -42z m-1
-865 c24 -30 69 -3 69 42 0 46 17 15 30 -52 15 -78 8 -206 -14 -256 l-14 -33
-1 31 c-1 16 -6 35 -13 42 -29 29 -77 1 -79 -46 -1 -22 -4 -19 -16 18 -19 59
-21 212 -3 275 13 47 14 48 21 21 4 -15 13 -34 20 -42z m17 -872 c33 -5 52 15
52 55 0 53 16 30 30 -43 14 -74 8 -203 -11 -250 l-13 -29 -4 25 c-6 36 -22 51
-51 48 -20 -2 -29 -11 -37 -38 l-12 -35 -12 45 c-16 61 -17 193 0 260 l13 55
11 -45 c9 -35 16 -46 34 -48z m-13 -842 c26 -22 65 3 65 40 0 51 17 25 30 -46
14 -74 8 -203 -11 -250 l-13 -29 -4 25 c-6 36 -22 51 -51 48 -19 -2 -29 -11
-37 -36 l-10 -33 -13 41 c-16 56 -17 194 -1 261 13 53 14 54 22 23 4 -17 15
-37 23 -44z m5 -860 c8 -5 18 -10 22 -10 16 0 38 33 38 58 0 40 16 14 29 -46
19 -91 8 -247 -20 -277 -5 -5 -9 1 -9 17 0 26 -22 58 -41 58 -17 0 -49 -40
-50 -62 -1 -15 -6 -7 -15 22 -18 56 -19 200 -3 266 l12 48 11 -32 c6 -18 18
-37 26 -42z m13 -858 c25 -5 47 16 47 44 0 13 4 24 9 24 12 0 31 -103 31 -170
0 -67 -19 -170 -31 -170 -5 0 -9 11 -9 24 0 57 -68 62 -86 7 l-11 -34 -11 46
c-15 59 -15 195 0 254 l11 46 16 -34 c9 -19 24 -35 34 -37z m-29 -834 c6 -21
46 -24 64 -6 7 7 12 22 12 35 0 43 17 23 29 -34 14 -72 14 -154 0 -226 -12
-57 -29 -77 -29 -33 0 57 -66 62 -85 6 l-12 -34 -11 46 c-15 60 -15 196 0 256
12 47 14 46 32 -10z"/>
</g>
</svg>
